<?xml version="1.0" encoding="utf-8"?>
<!-- Generator: Adobe Illustrator 21.1.0, SVG Export Plug-In . SVG Version: 6.00 Build 0)  -->
<svg version="1.1" id="Layer_1" xmlns="http://www.w3.org/2000/svg" xmlns:xlink="http://www.w3.org/1999/xlink" x="0px" y="0px"
	 viewBox="0 0 20 20" style="enable-background:new 0 0 20 20;" xml:space="preserve">
<g>
	<path d="M19.8,0.8v1.4c0,0.2-0.1,0.4-0.2,0.5c-0.2,0.1-0.4,0.2-0.6,0.2H1c-0.2,0-0.4-0.1-0.6-0.2C0.3,2.6,0.2,2.4,0.2,2.2V0.8
		c0-0.2,0.1-0.4,0.2-0.5C0.6,0.2,0.8,0.1,1,0.1h18c0.2,0,0.4,0.1,0.6,0.2C19.7,0.5,19.8,0.6,19.8,0.8z M19.8,6.4v1.4
		c0,0.2-0.1,0.4-0.2,0.5c-0.2,0.1-0.4,0.2-0.6,0.2H1c-0.2,0-0.4-0.1-0.6-0.2C0.3,8.2,0.2,8,0.2,7.8V6.4c0-0.2,0.1-0.4,0.2-0.5
		C0.6,5.8,0.8,5.7,1,5.7h18c0.2,0,0.4,0.1,0.6,0.2C19.7,6.1,19.8,6.3,19.8,6.4z M19.8,12.1v1.4c0,0.2-0.1,0.4-0.2,0.5
		c-0.2,0.1-0.4,0.2-0.6,0.2H1c-0.2,0-0.4-0.1-0.6-0.2c-0.2-0.1-0.2-0.3-0.2-0.5v-1.4c0-0.2,0.1-0.4,0.2-0.5c0.2-0.1,0.4-0.2,0.6-0.2
		h18c0.2,0,0.4,0.1,0.6,0.2S19.8,11.9,19.8,12.1z M19.8,17.8v1.4c0,0.2-0.1,0.4-0.2,0.5c-0.2,0.1-0.4,0.2-0.6,0.2H1
		c-0.2,0-0.4-0.1-0.6-0.2c-0.2-0.1-0.2-0.3-0.2-0.5v-1.4c0-0.2,0.1-0.4,0.2-0.5c0.2-0.1,0.4-0.2,0.6-0.2h18c0.2,0,0.4,0.1,0.6,0.2
		C19.7,17.4,19.8,17.6,19.8,17.8z"/>
</g>
</svg>
