<?xml version="1.0" encoding="utf-8"?>
<!-- Generator: Adobe Illustrator 19.1.0, SVG Export Plug-In . SVG Version: 6.00 Build 0)  -->
<svg version="1.1" id="Layer_1" xmlns="http://www.w3.org/2000/svg" xmlns:xlink="http://www.w3.org/1999/xlink" x="0px" y="0px"
	 viewBox="0 0 200 200" style="enable-background:new 0 0 200 200;" xml:space="preserve">
<style type="text/css">
	.st0{fill:#CB2027;}
</style>
<g>
	<g>
		<path class="st0" d="M185.8,56.7c0-14.4-5.6-27.9-15.7-38c-19.1-19-49.1-20.8-70.1-5.1C78.9-2.1,48.9-0.4,29.9,18.7
			c-10.1,10.1-15.7,23.6-15.7,38c0,14.4,5.6,27.9,15.7,38l18.5,18.5v33.5c0,2.3,1.9,4.2,4.2,4.2c2.3,0,4.2-1.9,4.2-4.2v-25.2l3.1,3
			v56c0,1.3,1.1,2.4,2.4,2.4c1.3,0,2.4-1.1,2.4-2.4v-51.2l4.4,4.4v24.9c0,1.5,1.2,2.6,2.6,2.6s2.6-1.2,2.6-2.6v-19.6l25.8,25.7
			l20.1-20.1v46.7c0,1.3,1.1,2.4,2.4,2.4c1.3,0,2.4-1.1,2.4-2.4v-51.5l6.3-6.3v20.7c0,2.3,1.9,4.2,4.2,4.2s4.2-1.9,4.2-4.2v-29
			l30.6-30.5C180.3,84.5,185.8,71.1,185.8,56.7z M158.3,82.9L100,141.1L41.7,82.9c-7-7-10.8-16.3-10.8-26.2
			c0-9.9,3.8-19.2,10.8-26.2c7.2-7.2,16.7-10.8,26.2-10.8c9.5,0,19,3.6,26.2,10.8l5.9,5.9l5.9-5.9c14.5-14.4,38-14.4,52.5,0
			c7,7,10.8,16.3,10.8,26.2C169.2,66.6,165.3,75.9,158.3,82.9z"/>
	</g>
</g>
</svg>
