<?xml version="1.0" encoding="utf-8"?>
<!-- Generator: Adobe Illustrator 19.2.0, SVG Export Plug-In . SVG Version: 6.00 Build 0)  -->
<svg version="1.1" id="Layer_1" xmlns="http://www.w3.org/2000/svg" xmlns:xlink="http://www.w3.org/1999/xlink" x="0px" y="0px"
	 viewBox="0 0 1600 1600" style="enable-background:new 0 0 1600 1600;" xml:space="preserve">
<style type="text/css">
	.st0{fill:#FFFFFF;}
</style>
<path class="st0" d="M1173.9,584.8c-0.2-1.8-0.6-3.6-1.3-5.4l-1.9-4.4l-0.6-0.6c-1.2-1.8-2.6-3.4-4.2-4.8l-1.7-1.3
	c-0.7-0.5-2-1.5-3.7-2.3L811.5,395.9c-6.9-3.3-15.1-3.3-22,0l-349,170c-1.8,0.9-3,1.8-3.2,2l-2.1,1.5c-1.7,1.5-3.2,3.2-4.4,5
	l-2.5,5.1c-0.6,1.5-0.9,3.1-1.1,4.5l-0.4,428.4c0,9.1,5.4,17.5,13.7,21.5l348.3,169.7l2.7,1.5l1.1,0.1c1.8,0.6,3.6,1,5.5,1.2
	l2.4,0.2l2.3-0.1c2.1-0.2,4.1-0.6,5.7-1.2l351.9-171.2c8.3-4,13.7-12.5,13.7-21.5L1173.9,584.8z M1094.3,587.5L800.5,730.6
	l-119.3-58.1L975,529.4L1094.3,587.5z M775.8,937.8c-2.9-1.7-6.2-2.7-9.8-2.7c-10.6,0-19.2,8.4-19.2,18.7v155.1
	c0,10.3,8.6,18.7,19.2,18.7c3.6,0,6.9-1,9.8-2.7v18.7L476.2,997.6V626.4l299.6,145.9V937.8z M506.7,587.5l293.8-143.1l131.6,64.1
	L638.3,651.6L506.7,587.5z M1124.8,894.7c-2-0.7-4-1.1-6.2-1.1c-10.6,0-19.2,8.4-19.2,18.7v68l-110.5,53.8
	c-9.5,4.6-13.3,15.8-8.5,25.2c1.3,2.5,3.2,4.4,5.3,6.1l-160.4,78.1V772.4l299.6-145.9V894.7z"/>
</svg>
