<?xml version="1.0" encoding="utf-8"?>
<!-- Generator: Adobe Illustrator 21.1.0, SVG Export Plug-In . SVG Version: 6.00 Build 0)  -->
<svg version="1.1" id="Check" xmlns="http://www.w3.org/2000/svg" xmlns:xlink="http://www.w3.org/1999/xlink" x="0px" y="0px"
	 viewBox="0 0 58.1 70" style="enable-background:new 0 0 58.1 70;" xml:space="preserve">
<style type="text/css">
	.st0{fill:#FFFFFF;}
	.st1{fill:#3F9C35;}
</style>
<path id="arrow" d="M29,61.5c-3.3,0-6.6-0.4-9.7-1.2L29,70l9.7-9.7C35.7,61.1,32.4,61.5,29,61.5z"/>
<circle id="bg" class="st0" cx="29" cy="28.9" r="28.9"/>
<path id="check" class="st1" d="M26.9,42.5l17.8-17.7c0.6-0.6,0.6-1.6,0-2.2l-2.2-2.2c-0.6-0.6-1.6-0.6-2.2,0L25.8,34.9L19,28.1
	c-0.6-0.6-1.6-0.6-2.2,0l-2.2,2.2c-0.6,0.6-0.6,1.6,0,2.2l10.1,10C25.2,43.1,26.2,43.1,26.9,42.5z M53.1,28.9c0,13.3-10.7,24-24,24
	s-24-10.7-24-24s10.7-24,24-24S53.1,15.7,53.1,28.9z"/>
</svg>
