<?xml version="1.0" encoding="utf-8"?>
<!-- Generator: Adobe Illustrator 21.1.0, SVG Export Plug-In . SVG Version: 6.00 Build 0)  -->
<svg version="1.1" id="error" xmlns="http://www.w3.org/2000/svg" xmlns:xlink="http://www.w3.org/1999/xlink" x="0px" y="0px"
	 viewBox="0 0 57.9 70" style="enable-background:new 0 0 57.9 70;" xml:space="preserve">
<style type="text/css">
	.st0{fill:#FFFFFF;}
	.st1{fill:#A30000;}
</style>
<path id="arrow" d="M28.9,61.5c-3.3,0-6.6-0.4-9.7-1.2l9.7,9.7l9.7-9.7C35.5,61.1,32.3,61.5,28.9,61.5z"/>
<circle id="bg" class="st0" cx="29" cy="29" r="29"/>
<path id="error_1_" class="st1" d="M52.9,29c0,13.2-10.7,23.9-23.9,23.9S5,42.2,5,29S15.7,5,29,5S52.9,15.7,52.9,29z M34.3,29
	l6.3-6.2c0.5-0.5,0.5-1.2,0-1.6l-3.8-3.8c-0.5-0.5-1.2-0.5-1.6,0l-6.2,6.3l-6.2-6.3c-0.5-0.5-1.2-0.5-1.6,0l-3.8,3.8
	c-0.5,0.5-0.5,1.2,0,1.6l6.3,6.2l-6.3,6.2c-0.5,0.5-0.5,1.2,0,1.6l3.8,3.8c0.5,0.5,1.2,0.5,1.6,0l6.2-6.3l6.2,6.3
	c0.5,0.5,1.2,0.5,1.6,0l3.8-3.8c0.5-0.5,0.5-1.2,0-1.6L34.3,29z"/>
</svg>
