<?xml version="1.0" encoding="UTF-8" standalone="no"?>
<svg width="86.697pt" xmlns="http://www.w3.org/2000/svg" viewBox="0 0 86.697382 92.46" height="92.46pt">
 <path d="m27.016 42.32a1.249 1.249 0 0 0 1.765 0l4.414-4.414 4.41 4.414a1.249 1.249 0 0 0 1.77 0 1.252 1.252 0 0 0 0 -1.77l-4.41-4.41 4.41-4.413a1.247 1.247 0 0 0 0 -1.766 1.252 1.252 0 0 0 -1.77 0l-4.41 4.41-4.414-4.41a1.247 1.247 0 0 0 -1.765 0 1.247 1.247 0 0 0 0 1.766l4.41 4.414-4.41 4.41a1.252 1.252 0 0 0 0 1.77zm51.047-2.976c-2.352-11.965-10.172-21.2-21.024-24.989l0.328-1.296a0.232 0.232 0 0 0 -0.058 -0.223 0.227 0.227 0 0 0 -0.215 -0.074l-4.672 0.843a0.239 0.239 0 0 0 -0.192 0.176c-0.02 0.09 0.008 0.188 0.083 0.246l3.703 3c0.062 0.051 0.148 0.067 0.226 0.043a0.24 0.24 0 0 0 0.156 -0.172l0.27-1.066c10.27 3.64 17.672 12.434 19.91 23.805 2.457 12.484-2.691 26.433-12.816 35.066a5.887 5.887 0 0 0 -4.461 -2.05 5.912 5.912 0 0 0 -5.906 5.906 5.91 5.91 0 0 0 5.905 5.901 5.91 5.91 0 0 0 5.902 -5.902c0-0.926-0.223-1.801-0.601-2.579 10.625-8.972 16.03-23.57 13.46-36.636zm-18.766 42.616a3.408 3.408 0 0 1 -3.402 -3.402 3.403 3.403 0 1 1 3.402 3.402z"/>
 <path d="m54.117 51.566a1.248 1.248 0 0 0 1.77 0l4.41-4.41 4.414 4.41c0.242 0.246 0.562 0.368 0.883 0.368 0.32 0 0.64-0.121 0.883-0.368a1.247 1.247 0 0 0 0 -1.765l-4.41-4.414 4.41-4.414a1.247 1.247 0 0 0 0 -1.766 1.247 1.247 0 0 0 -1.766 0l-4.414 4.41-4.41-4.41a1.247 1.247 0 0 0 -1.766 0 1.247 1.247 0 0 0 0 1.766l4.41 4.414-4.414 4.414a1.247 1.247 0 0 0 0 1.765zm-14.515 19.512a1.254 1.254 0 0 0 -1.766 0l-4.414 4.414-4.414-4.414a1.247 1.247 0 0 0 -1.766 0 1.252 1.252 0 0 0 0 1.77l4.41 4.414-4.41 4.41a1.252 1.252 0 0 0 0 1.77c0.242 0.242 0.563 0.363 0.883 0.363s0.64-0.121 0.883-0.364l4.414-4.414 4.41 4.414a1.26 1.26 0 0 0 1.77 0 1.252 1.252 0 0 0 0 -1.77l-4.414-4.41 4.414-4.413a1.252 1.252 0 0 0 0 -1.77zm9.132-10.949c-0.816 0-1.593 0.168-2.3 0.465l-7.118-13.024 3.618-1.98-0.72-1.317-8.554 4.676 0.719 1.317 3.621-1.98 7.14 13.07a5.896 5.896 0 0 0 -2.308 4.675 5.907 5.907 0 0 0 5.902 5.903 5.91 5.91 0 0 0 5.903 -5.903 5.907 5.907 0 0 0 -5.903 -5.902zm0 9.309a3.405 3.405 0 0 1 0 -6.809 3.408 3.408 0 0 1 3.403 3.402 3.408 3.408 0 0 1 -3.403 3.406zm-25.355-7.536a0.231 0.231 0 0 0 -0.23 0.008l-1.04 0.621-12.511-18.113c-0.618-6.41 2.039-13.375 7.285-19.117 4.972-5.442 11.691-9.184 18.566-10.371 0.489 2.765 2.903 4.875 5.809 4.875a5.91 5.91 0 0 0 5.902 -5.903 5.91 5.91 0 0 0 -5.902 -5.902 5.907 5.907 0 0 0 -5.88 5.406c-7.32 1.223-14.468 5.2-19.722 11.016-5.511 6.101-8.261 13.52-7.543 20.348l0.016 0.16 12.68 18.383-1.063 0.632a0.245 0.245 0 0 0 -0.117 0.196c0 0.086 0.035 0.16 0.101 0.207l3.903 2.707c0.074 0.05 0.176 0.058 0.258 0.007a0.239 0.239 0 0 0 0.117 -0.23l-0.496-4.738a0.238 0.238 0 0 0 -0.133 -0.192zm17.879-51.402a3.408 3.408 0 0 1 3.402 3.402 3.405 3.405 0 0 1 -3.402 3.403 3.403 3.403 0 0 1 0 -6.805z"/>
</svg>
