<?xml version="1.0" encoding="utf-8"?>
<!-- Generator: Adobe Illustrator 21.1.0, SVG Export Plug-In . SVG Version: 6.00 Build 0)  -->
<svg version="1.1" id="Layer_1" xmlns="http://www.w3.org/2000/svg" xmlns:xlink="http://www.w3.org/1999/xlink" x="0px" y="0px"
	 viewBox="0 0 28 28" style="enable-background:new 0 0 28 28;" xml:space="preserve">
<style type="text/css">
	.st0{fill:#231F20;}
</style>
<path class="st0" d="M23.5,17.8h-4.8c-0.6,0-2.7-1.3-4.7-3.8c2-2.4,4.1-3.7,4.7-3.7h4.8v2.7L27.4,9l-3.9-3.9v2.7h-4.8
	c-1.8,0-4.4,2-6.3,4.3c-2-2.2-4.6-4.3-6.3-4.3H0.6v2.5H6c0.6,0,2.7,1.3,4.7,3.8c-2,2.4-4.1,3.8-4.7,3.8H0.6v2.5H6
	c1.8,0,4.4-2,6.3-4.3c2,2.2,4.6,4.3,6.3,4.3h4.8v2.7l3.9-3.9l-3.9-3.9V17.8z"/>
</svg>
