<?xml version="1.0" encoding="utf-8"?>
<!-- Generator: Adobe Illustrator 21.1.0, SVG Export Plug-In . SVG Version: 6.00 Build 0)  -->
<svg version="1.1" xmlns="http://www.w3.org/2000/svg" xmlns:xlink="http://www.w3.org/1999/xlink" x="0px" y="0px"
	 viewBox="0 0 2032 2027.2" style="enable-background:new 0 0 2032 2027.2;" xml:space="preserve">
<style type="text/css">
	.st0{fill:#FFFFFF;}
</style>
<g id="Layer_2">
</g>
<g id="Layer_1">
	<g>
		<g>
			<polygon class="st0" points="901.7,955.8 1297.4,1267.5 1035.4,620.9 			"/>
			<path class="st0" d="M1018.3,2.4C459.2,2.4,5.9,455.7,5.9,1014.8c0,559.2,453.3,1012.4,1012.5,1012.4
				c559.1,0,1012.4-453.2,1012.4-1012.4C2030.8,455.7,1577.5,2.4,1018.3,2.4z M1433.7,1518.6c-19.7,0-34.9-7.7-55.9-24.7
				l-522.5-422.1l-175.1,438.6H528.9L971.2,446.6c11.5-28,36.2-42.8,64.2-42.8c27.9,0,50.9,14.8,62.4,42.8l403,969.9
				c4.5,11.8,6.9,22.9,6.9,29.8C1507.7,1489,1473.2,1518.6,1433.7,1518.6z"/>
		</g>
	</g>
</g>
</svg>
