<?xml version="1.0" encoding="utf-8"?>
<!-- Generator: Adobe Illustrator 21.1.0, SVG Export Plug-In . SVG Version: 6.00 Build 0)  -->
<svg version="1.1" id="Layer_1" xmlns="http://www.w3.org/2000/svg" xmlns:xlink="http://www.w3.org/1999/xlink" x="0px" y="0px"
	 viewBox="0 0 28 28" style="enable-background:new 0 0 28 28;" xml:space="preserve">
<style type="text/css">
	.st0{fill:#1A1918;}
</style>
<g>
	<polygon class="st0" points="12.4,13.2 17.8,17.4 14.2,8.6 	"/>
	<path class="st0" d="M14,0.2C6.4,0.2,0.2,6.4,0.2,14c0,7.6,6.2,13.8,13.8,13.8c7.6,0,13.8-6.2,13.8-13.8C27.8,6.4,21.6,0.2,14,0.2z
		 M19.7,20.9c-0.3,0-0.5-0.1-0.8-0.3l-7.1-5.7l-2.4,6H7.3l6-14.5c0.2-0.4,0.5-0.6,0.9-0.6c0.4,0,0.7,0.2,0.8,0.6l5.5,13.2
		c0.1,0.2,0.1,0.3,0.1,0.4C20.7,20.5,20.2,20.9,19.7,20.9z"/>
</g>
</svg>
