<?xml version="1.0" encoding="utf-8"?>
<!-- Generator: Adobe Illustrator 19.2.1, SVG Export Plug-In . SVG Version: 6.00 Build 0)  -->
<svg version="1.1" id="Layer_1" xmlns="http://www.w3.org/2000/svg" xmlns:xlink="http://www.w3.org/1999/xlink" x="0px" y="0px"
	 viewBox="0 0 267.3 32.1" style="enable-background:new 0 0 267.3 32.1;" xml:space="preserve">
<style type="text/css">
	.st0{enable-background:new    ;}
	.st1{fill:#FFFFFF;}
</style>
<g class="st0">
	<path class="st1" d="M12.8,32c-1.6,0-3-0.2-4.3-0.7c-1.3-0.4-2.4-1-3.3-1.8s-1.8-1.6-2.4-2.7c-0.7-1-1.2-2.1-1.6-3.3
		c-0.4-1.2-0.7-2.4-0.9-3.7S0,17.2,0,16s0.1-2.4,0.3-3.6s0.5-2.5,0.9-3.6c0.4-1.2,1-2.3,1.6-3.3c0.7-1,1.5-2,2.4-2.8s2-1.4,3.3-1.9
		c1.2-0.5,2.7-0.7,4.2-0.7c1.4,0,2.8,0.2,3.9,0.5c1.2,0.4,2.2,0.8,3,1.4c0.9,0.6,1.6,1.2,2.2,2c0.6,0.7,1,1.5,1.4,2.2l-4.2,2
		c-0.4-0.6-0.8-1.1-1.2-1.6s-0.9-0.8-1.4-1.1s-1-0.6-1.7-0.7c-0.6-0.2-1.3-0.2-2.1-0.2c-1,0-1.9,0.2-2.7,0.5S8.4,5.9,7.8,6.5
		s-1.1,1.2-1.5,2s-0.7,1.6-1,2.4c-0.3,0.9-0.4,1.7-0.5,2.6c-0.1,0.9-0.2,1.8-0.2,2.6c0,1.4,0.2,2.7,0.5,4.1s0.8,2.6,1.5,3.7
		s1.5,2,2.5,2.7s2.2,1,3.6,1c0.8,0,1.4-0.1,2.1-0.3c0.6-0.2,1.2-0.5,1.7-0.8c0.5-0.4,1-0.8,1.4-1.3s0.8-1,1.1-1.6l4.3,1.6
		c-0.4,1-1,1.9-1.6,2.8c-0.6,0.8-1.4,1.5-2.3,2.1s-1.9,1-3,1.4C15.4,31.8,14.1,32,12.8,32z"/>
	<path class="st1" d="M42,32c-1.6,0-3.1-0.2-4.4-0.7c-1.3-0.4-2.5-1-3.4-1.8c-1-0.8-1.8-1.6-2.5-2.7c-0.7-1-1.3-2.1-1.7-3.3
		c-0.4-1.2-0.8-2.4-1-3.7s-0.3-2.6-0.3-3.8c0-1.3,0.1-2.5,0.3-3.8c0.2-1.3,0.5-2.5,1-3.7c0.4-1.2,1-2.3,1.7-3.3s1.6-1.9,2.5-2.7
		c1-0.8,2.1-1.3,3.4-1.8C38.9,0.3,40.4,0,42,0s3.1,0.2,4.4,0.7c1.3,0.4,2.5,1,3.4,1.8c1,0.8,1.8,1.6,2.5,2.7c0.7,1,1.3,2.1,1.7,3.3
		s0.8,2.4,1,3.7s0.3,2.6,0.3,3.8c0,1.3-0.1,2.6-0.3,3.8c-0.2,1.3-0.5,2.5-1,3.7c-0.4,1.2-1,2.3-1.7,3.3s-1.6,1.9-2.5,2.7
		c-1,0.8-2.1,1.3-3.4,1.8C45.1,31.7,43.6,32,42,32z M42,27.5c1.1,0,2-0.2,2.9-0.5c0.8-0.3,1.6-0.8,2.2-1.4c0.6-0.6,1.2-1.2,1.6-2
		c0.5-0.8,0.8-1.6,1.1-2.4c0.3-0.9,0.5-1.7,0.6-2.6s0.2-1.8,0.2-2.6c0-0.9-0.1-1.8-0.2-2.7s-0.3-1.8-0.6-2.7s-0.7-1.7-1.1-2.4
		c-0.5-0.7-1-1.4-1.6-1.9c-0.6-0.6-1.4-1-2.2-1.3c-0.8-0.3-1.8-0.5-2.9-0.5S40,4.7,39.1,5c-0.8,0.3-1.6,0.8-2.2,1.4
		c-0.6,0.6-1.2,1.2-1.6,2c-0.5,0.8-0.8,1.6-1.1,2.4c-0.3,0.9-0.5,1.7-0.6,2.6c-0.1,0.9-0.2,1.8-0.2,2.6c0,1.3,0.2,2.7,0.5,4.1
		s0.8,2.6,1.5,3.7s1.6,2,2.7,2.7C39,27.2,40.4,27.5,42,27.5z"/>
	<path class="st1" d="M81.2,31.4L67.9,10.5l-1.2-2.3l0.1,2.3v20.9h-4.6V0.6h4.6l13,20.6l1.3,2.4L81,21.3V0.6h4.6v30.8H81.2z"/>
	<path class="st1" d="M104.8,5v26.4h-4.6V5h-8.7V0.6h22V5H104.8z"/>
	<path class="st1" d="M136,31.4l-2.4-7.1h-12.5l-2.5,7.1h-4.7L125,0.6h4.7l11.1,30.8H136z M128.4,9.8c-0.2-0.5-0.4-1.1-0.6-1.7
		s-0.4-1.2-0.5-1.8c-0.1,0.5-0.3,1.1-0.5,1.8c-0.2,0.6-0.4,1.2-0.5,1.7l-3.8,10.5h9.6L128.4,9.8z"/>
	<path class="st1" d="M146.7,31.4V0.6h4.6v30.8H146.7z"/>
	<path class="st1" d="M178.5,31.4l-13.4-20.9l-1.2-2.3l0.1,2.3v20.9h-4.6V0.6h4.6l13,20.6l1.3,2.4l-0.1-2.3V0.6h4.6v30.8
		C182.8,31.4,178.5,31.4,178.5,31.4z"/>
	<path class="st1" d="M190.7,31.4V0.6h19.1v4.3h-14.5v8.4h9.4v4.3h-9.4V27h15.5v4.3h-20.1V31.4z"/>
	<path class="st1" d="M217.1,31.4V0.6h13c1.9,0,3.5,0.3,4.7,0.8c1.3,0.5,2.3,1.2,3.1,2.1s1.3,1.8,1.6,2.9s0.5,2.2,0.5,3.4
		c0,0.9-0.1,1.8-0.4,2.7s-0.7,1.8-1.2,2.5s-1.2,1.5-2.1,2.1c-0.8,0.6-1.9,1.1-3,1.4l6.3,13h-5.1l-6.1-12.6h-6.7v12.6L217.1,31.4
		L217.1,31.4z M230.2,14.4c1,0,1.8-0.1,2.4-0.4c0.6-0.3,1.2-0.6,1.6-1.1c0.4-0.4,0.7-0.9,0.9-1.5s0.3-1.1,0.3-1.7
		c0-0.5-0.1-1.1-0.2-1.6s-0.4-1.1-0.8-1.5c-0.4-0.5-0.9-0.8-1.6-1.1s-1.5-0.4-2.5-0.4h-8.5v9.4L230.2,14.4L230.2,14.4z"/>
	<path class="st1" d="M261.3,7.6c-0.2-0.4-0.4-0.9-0.8-1.2c-0.3-0.4-0.7-0.7-1.2-1s-1-0.5-1.6-0.7s-1.3-0.2-2-0.2
		c-1.5,0-2.6,0.3-3.5,1c-0.8,0.6-1.2,1.6-1.2,2.7c0,0.7,0.2,1.4,0.7,1.9s1.1,1,1.8,1.3c0.7,0.4,1.6,0.7,2.5,1.1
		c1,0.3,1.9,0.7,2.9,1.1c1,0.4,2,0.8,2.9,1.3c1,0.5,1.8,1.1,2.5,1.8s1.3,1.6,1.8,2.6s0.7,2.2,0.7,3.6c0,1.5-0.3,2.8-0.8,3.9
		s-1.3,2.1-2.2,2.9c-0.9,0.8-2.1,1.4-3.3,1.8c-1.3,0.4-2.7,0.6-4.1,0.6s-2.7-0.2-3.9-0.5c-1.2-0.4-2.3-0.9-3.2-1.5
		c-1-0.7-1.8-1.4-2.5-2.4c-0.7-0.9-1.2-2-1.6-3.1l4.3-1.6c0.3,0.7,0.7,1.3,1.2,1.9s1,1.1,1.6,1.5s1.3,0.7,2,1
		c0.7,0.2,1.5,0.3,2.3,0.3c0.8,0,1.6-0.1,2.3-0.3c0.7-0.2,1.3-0.5,1.8-0.9s0.9-0.9,1.1-1.5c0.3-0.6,0.4-1.3,0.4-2.1
		c0-0.9-0.2-1.7-0.7-2.3s-1.1-1.2-1.8-1.6c-0.7-0.5-1.6-0.9-2.5-1.2c-1-0.3-1.9-0.7-2.9-1.1s-2-0.8-2.9-1.2c-1-0.4-1.8-1-2.5-1.6
		s-1.3-1.4-1.8-2.3c-0.5-0.9-0.7-2-0.7-3.3c0-1.1,0.2-2.1,0.7-3.1c0.4-1,1.1-1.8,1.9-2.6c0.8-0.7,1.9-1.3,3.1-1.8
		c1.2-0.4,2.6-0.6,4.2-0.6c1.3,0,2.5,0.2,3.5,0.5c1.1,0.3,2,0.7,2.8,1.3c0.8,0.5,1.5,1.2,2,1.9s0.9,1.6,1.2,2.4L261.3,7.6z"/>
</g>
</svg>
