<svg id="logo" xmlns="http://www.w3.org/2000/svg" viewBox="0 0 150.05 47.31"><title>Logotype_RH_Insights_RGB_Black</title><path d="M45.18,52.8l-2.74-5.66H40.56V52.8H36V36h7.51a11.15,11.15,0,0,1,2.68.3,5.7,5.7,0,0,1,2.08.95,4.23,4.23,0,0,1,1.33,1.69,6.17,6.17,0,0,1,.47,2.53,5.39,5.39,0,0,1-.82,3.1A5.16,5.16,0,0,1,47,46.39L50.4,52.8H45.18ZM45,40.3a2.09,2.09,0,0,0-1.58-.5H40.56v3.67h2.75A2.28,2.28,0,0,0,44.95,43a1.88,1.88,0,0,0,.48-1.39A1.82,1.82,0,0,0,45,40.3Z" transform="translate(-36 -35.88)"/><path d="M53.9,52.8V36H66.77v3.91H58.51v2.26h5V46h-5v2.88h8.42V52.8h-13Z" transform="translate(-36 -35.88)"/><path d="M84.58,48.3a6.06,6.06,0,0,1-1.73,2.62A7,7,0,0,1,80,52.36a15.55,15.55,0,0,1-3.92.44H70.63V36h5.88a14.55,14.55,0,0,1,3.58.41,6.52,6.52,0,0,1,2.72,1.38,6.35,6.35,0,0,1,1.73,2.56,11.07,11.07,0,0,1,.61,4A12,12,0,0,1,84.58,48.3Zm-4.4-5.92A3.23,3.23,0,0,0,79.51,41a2.69,2.69,0,0,0-1.2-.78A5.74,5.74,0,0,0,76.49,40H75.34v8.83h1a6.54,6.54,0,0,0,1.85-.23,2.8,2.8,0,0,0,1.26-.74,3,3,0,0,0,.71-1.37,8.68,8.68,0,0,0,.22-2.1A8.54,8.54,0,0,0,80.17,42.38Z" transform="translate(-36 -35.88)"/><path d="M107.3,52.8V46.18h-5.23V52.8H97.32V36h4.75v6.12h5.23V36h4.75V52.8H107.3Z" transform="translate(-36 -35.88)"/><path d="M127,52.8l-0.91-3h-5l-0.91,3h-5l6.1-16.8H126l6.1,16.8h-5ZM124.68,45q-0.22-.82-0.38-1.42L124,42.55q-0.13-.48-0.23-0.88t-0.17-.83c0,0.29-.1.57-0.17,0.84s-0.14.57-.23,0.89l-0.3,1.08L122.52,45l-0.31,1.1H125Z" transform="translate(-36 -35.88)"/><path d="M141.58,40.06V52.8h-4.66V40.06h-4.7V36h14.06v4.06h-4.7Z" transform="translate(-36 -35.88)"/><path d="M152.52,38.91a2.08,2.08,0,0,1-1.14,1.14,2.31,2.31,0,0,1-1.72,0,2.08,2.08,0,0,1-1.14-1.14,2.31,2.31,0,0,1,0-1.72A2.08,2.08,0,0,1,149.66,36a2.31,2.31,0,0,1,1.72,0,2.08,2.08,0,0,1,1.14,1.14A2.31,2.31,0,0,1,152.52,38.91Zm-0.32-1.57a1.78,1.78,0,0,0-.38-0.58,1.75,1.75,0,0,0-.58-0.38,1.94,1.94,0,0,0-1.44,0,1.75,1.75,0,0,0-1,1,1.94,1.94,0,0,0,0,1.44,1.77,1.77,0,0,0,1,1,1.94,1.94,0,0,0,1.44,0,1.76,1.76,0,0,0,.58-0.38,1.78,1.78,0,0,0,.38-0.58A1.94,1.94,0,0,0,152.2,37.33Zm-0.83.66a0.7,0.7,0,0,1-.37.24l0.49,1H151l-0.46-.91h-0.45v0.91h-0.4V36.83h1a1,1,0,0,1,.3,0,0.69,0.69,0,0,1,.25.13,0.62,0.62,0,0,1,.17.22,0.76,0.76,0,0,1,.06.32A0.71,0.71,0,0,1,151.36,38ZM151,37.3a0.43,0.43,0,0,0-.27-0.08h-0.62v0.67h0.62a0.44,0.44,0,0,0,.27-0.08A0.35,0.35,0,0,0,151,37.3Z" transform="translate(-36 -35.88)"/><path d="M36.18,82.8V57.6H39V82.8H36.18Z" transform="translate(-36 -35.88)"/><path d="M61.31,82.8l-11-17.24q-0.22-.32-0.47-0.77l-0.5-.9L48.87,63a5.87,5.87,0,0,1-.34-0.65V82.8H45.79V57.6h2.74L59.44,75.17q0.22,0.32.47,0.77l0.5,0.9,0.49,0.85a6,6,0,0,1,.34.65V57.6H64V82.8H61.31Z" transform="translate(-36 -35.88)"/><path d="M85.48,78.95a6.12,6.12,0,0,1-1.64,2.23,8,8,0,0,1-2.63,1.48,10.68,10.68,0,0,1-3.53.54,11.39,11.39,0,0,1-4.77-1,12.41,12.41,0,0,1-3.69-2.5l1.87-2.09a12.78,12.78,0,0,0,3.1,2.2,7.93,7.93,0,0,0,3.6.83,6.25,6.25,0,0,0,4-1.15,3.81,3.81,0,0,0,1.46-3.17,4.23,4.23,0,0,0-.29-1.58,3.52,3.52,0,0,0-1-1.33A9.39,9.39,0,0,0,80.1,72.2,23.68,23.68,0,0,0,77.22,71a25,25,0,0,1-3.44-1.46A9.33,9.33,0,0,1,71.55,68a5.12,5.12,0,0,1-1.22-1.89,7.07,7.07,0,0,1-.38-2.41,6.11,6.11,0,0,1,.58-2.7,6,6,0,0,1,1.6-2,7,7,0,0,1,2.48-1.28,11.31,11.31,0,0,1,3.22-.43,11.49,11.49,0,0,1,4.3.72,13.56,13.56,0,0,1,3.37,2l-1.8,2.2a11.13,11.13,0,0,0-2.75-1.75,8.33,8.33,0,0,0-3.29-.59,7.23,7.23,0,0,0-2.23.31,4.5,4.5,0,0,0-1.53.81A3,3,0,0,0,73,62a3.76,3.76,0,0,0-.27,1.42A4.36,4.36,0,0,0,73,64.89a3,3,0,0,0,.86,1.22,7.8,7.8,0,0,0,1.82,1.17,30.21,30.21,0,0,0,3.08,1.26,26.52,26.52,0,0,1,3.49,1.51,8.77,8.77,0,0,1,2.25,1.66,5.35,5.35,0,0,1,1.21,2A7.87,7.87,0,0,1,86,76.18,6.93,6.93,0,0,1,85.48,78.95Z" transform="translate(-36 -35.88)"/><path d="M92.05,82.8V57.6h2.81V82.8H92.05Z" transform="translate(-36 -35.88)"/><path d="M119.39,77.33a9,9,0,0,1-2,3.27,8,8,0,0,1-3,2,10.35,10.35,0,0,1-3.69.65,8.9,8.9,0,0,1-4.19-1,9.73,9.73,0,0,1-3.22-2.72,12.65,12.65,0,0,1-2.05-4.1,17.66,17.66,0,0,1-.72-5.15,17.2,17.2,0,0,1,.76-5.2,13,13,0,0,1,2.11-4.12,9.86,9.86,0,0,1,3.26-2.72,8.94,8.94,0,0,1,4.18-1,9.37,9.37,0,0,1,8,4l-2.23,1.69a8.74,8.74,0,0,0-2.52-2.41,6.58,6.58,0,0,0-3.35-.76,6,6,0,0,0-3,.77,7.23,7.23,0,0,0-2.34,2.14A10.89,10.89,0,0,0,103.95,66a14.94,14.94,0,0,0-.56,4.21,14.69,14.69,0,0,0,.58,4.23,11.1,11.1,0,0,0,1.57,3.31,7.32,7.32,0,0,0,2.36,2.16,5.89,5.89,0,0,0,3,.77,6.1,6.1,0,0,0,4.84-1.91,8.28,8.28,0,0,0,1.67-5.62V72.9h-4.54V70.34h7.27v2.44A13.43,13.43,0,0,1,119.39,77.33Z" transform="translate(-36 -35.88)"/><path d="M140.72,82.8V70.92H128.19V82.8h-2.81V57.6h2.81V68.36h12.53V57.6h2.81V82.8h-2.81Z" transform="translate(-36 -35.88)"/><path d="M158.83,60.16V82.8H156V60.16h-7.42V57.6h17.64v2.56h-7.42Z" transform="translate(-36 -35.88)"/><path d="M185.49,78.95a6.13,6.13,0,0,1-1.64,2.23,8,8,0,0,1-2.63,1.48,10.68,10.68,0,0,1-3.53.54,11.39,11.39,0,0,1-4.77-1,12.4,12.4,0,0,1-3.69-2.5l1.87-2.09a12.79,12.79,0,0,0,3.1,2.2,7.93,7.93,0,0,0,3.6.83,6.25,6.25,0,0,0,4-1.15,3.82,3.82,0,0,0,1.46-3.17,4.24,4.24,0,0,0-.29-1.58,3.52,3.52,0,0,0-1-1.33,9.35,9.35,0,0,0-1.85-1.21A23.58,23.58,0,0,0,177.23,71a25,25,0,0,1-3.44-1.46A9.31,9.31,0,0,1,171.56,68a5.12,5.12,0,0,1-1.22-1.89,7.07,7.07,0,0,1-.38-2.41,6.1,6.1,0,0,1,.58-2.7,6,6,0,0,1,1.6-2,7,7,0,0,1,2.48-1.28,11.31,11.31,0,0,1,3.22-.43,11.48,11.48,0,0,1,4.3.72,13.57,13.57,0,0,1,3.37,2l-1.8,2.2A11.11,11.11,0,0,0,181,60.35a8.33,8.33,0,0,0-3.29-.59,7.23,7.23,0,0,0-2.23.31,4.51,4.51,0,0,0-1.53.81A3,3,0,0,0,173,62a3.74,3.74,0,0,0-.27,1.42,4.38,4.38,0,0,0,.22,1.42,3,3,0,0,0,.86,1.22,7.78,7.78,0,0,0,1.82,1.17,30.17,30.17,0,0,0,3.08,1.26,26.48,26.48,0,0,1,3.49,1.51,8.74,8.74,0,0,1,2.25,1.66,5.34,5.34,0,0,1,1.21,2,7.84,7.84,0,0,1,.36,2.48A7,7,0,0,1,185.49,78.95Z" transform="translate(-36 -35.88)"/></svg>