<?xml version="1.0" encoding="utf-8"?>
<!-- Generator: Adobe Illustrator 19.2.1, SVG Export Plug-In . SVG Version: 6.00 Build 0)  -->
<svg version="1.1" id="logo" xmlns="http://www.w3.org/2000/svg" xmlns:xlink="http://www.w3.org/1999/xlink" x="0px" y="0px"
	 viewBox="0 0 202.4 77.7" style="enable-background:new 0 0 202.4 77.7;" xml:space="preserve">
<style type="text/css">
	.st0{fill:#FFFFFF;}
</style>
<g>
	<path class="st0" d="M10.2,17.1l-2.7-5.7H5.6v5.7H1V0.3h7.5c1,0,1.9,0.1,2.7,0.3s1.5,0.5,2.1,0.9s1,1,1.3,1.7s0.5,1.5,0.5,2.5
		c0,1.3-0.3,2.3-0.8,3.1c-0.6,0.9-1.3,1.5-2.3,1.9l3.4,6.4C15.4,17.1,10.2,17.1,10.2,17.1z M10,4.6C9.7,4.3,9.2,4.1,8.4,4.1H5.6v3.7
		h2.7c0.8,0,1.3-0.2,1.6-0.5s0.5-0.8,0.5-1.4C10.4,5.4,10.3,4.9,10,4.6z"/>
	<path class="st0" d="M18.9,17.1V0.3h12.9v3.9h-8.3v2.3h5v3.8h-5v2.9h8.4v3.9H18.9z"/>
	<path class="st0" d="M49.6,12.6c-0.4,1.1-1,2-1.7,2.6s-1.7,1.1-2.8,1.4S42.7,17,41.2,17h-5.4V0.3h5.9c1.3,0,2.5,0.1,3.6,0.4
		s2,0.7,2.7,1.4c0.7,0.6,1.3,1.5,1.7,2.6s0.6,2.4,0.6,4S50,11.5,49.6,12.6z M45.2,6.7c-0.1-0.6-0.4-1-0.7-1.4s-0.7-0.6-1.2-0.8
		s-1.1-0.2-1.8-0.2h-1.2v8.8h1c0.7,0,1.3-0.1,1.8-0.2c0.5-0.2,0.9-0.4,1.3-0.7c0.3-0.3,0.6-0.8,0.7-1.4c0.1-0.6,0.2-1.3,0.2-2.1
		C45.4,7.9,45.3,7.2,45.2,6.7z"/>
	<path class="st0" d="M72.3,17.1v-6.6h-5.2v6.6h-4.8V0.3h4.8v6.1h5.2V0.3h4.8v16.8C77.1,17.1,72.3,17.1,72.3,17.1z"/>
	<path class="st0" d="M92,17.1l-0.9-3h-5l-0.9,3h-5l6.1-16.8H91l6.1,16.8H92z M89.7,9.3c-0.1-0.5-0.3-1-0.4-1.4S89.1,7.1,89,6.8
		c-0.1-0.3-0.2-0.6-0.2-0.9c-0.1-0.3-0.1-0.5-0.2-0.8c0,0.3-0.1,0.6-0.2,0.8c-0.1,0.3-0.1,0.6-0.2,0.9S88,7.5,87.9,7.9
		c-0.1,0.4-0.2,0.9-0.4,1.4l-0.3,1.1H90L89.7,9.3z"/>
	<path class="st0" d="M106.6,4.4v12.7h-4.7V4.4h-4.7V0.3h14.1v4.1H106.6z"/>
	<path class="st0" d="M117.5,3.2c-0.1,0.3-0.3,0.5-0.5,0.7c-0.2,0.2-0.4,0.3-0.7,0.5c-0.3,0.1-0.5,0.2-0.9,0.2
		c-0.3,0-0.6-0.1-0.9-0.2s-0.5-0.3-0.7-0.5s-0.3-0.4-0.5-0.7c-0.1-0.3-0.2-0.5-0.2-0.9s0.1-0.6,0.2-0.9s0.3-0.5,0.5-0.7
		s0.4-0.3,0.7-0.5c0.3-0.1,0.5-0.2,0.9-0.2c0.3,0,0.6,0.1,0.9,0.2s0.5,0.3,0.7,0.5s0.3,0.4,0.5,0.7c0.1,0.3,0.2,0.5,0.2,0.9
		S117.6,2.9,117.5,3.2z M117.2,1.6c-0.1-0.2-0.2-0.4-0.4-0.6s-0.4-0.3-0.6-0.4s-0.5-0.1-0.7-0.1c-0.3,0-0.5,0-0.7,0.1
		s-0.4,0.2-0.6,0.4s-0.3,0.4-0.4,0.6s-0.1,0.5-0.1,0.7c0,0.3,0,0.5,0.1,0.7s0.2,0.4,0.4,0.6c0.2,0.2,0.4,0.3,0.6,0.4
		c0.2,0.1,0.5,0.1,0.7,0.1c0.3,0,0.5,0,0.7-0.1s0.4-0.2,0.6-0.4s0.3-0.4,0.4-0.6c0.1-0.2,0.1-0.5,0.1-0.7S117.3,1.9,117.2,1.6z
		 M116.4,2.3c-0.1,0.1-0.2,0.2-0.4,0.2l0.5,1H116l-0.5-0.9H115v0.9h-0.4V1.1h1c0.1,0,0.2,0,0.3,0s0.2,0.1,0.2,0.1s0.1,0.1,0.2,0.2
		c0,0.1,0.1,0.2,0.1,0.3C116.5,2,116.5,2.2,116.4,2.3z M116,1.6c-0.1-0.1-0.2-0.1-0.3-0.1h-0.6v0.7h0.6c0.1,0,0.2,0,0.3-0.1
		s0.1-0.1,0.1-0.3C116.1,1.7,116.1,1.7,116,1.6z"/>
	<path class="st0" d="M20.1,39.7c-0.5,1.6-1.2,3-2.1,4.1c-0.9,1.2-2,2.1-3.3,2.7s-2.7,1-4.3,1s-3-0.3-4.3-1
		c-1.3-0.6-2.4-1.5-3.3-2.7s-1.6-2.5-2.1-4.1S0,36.4,0,34.5s0.3-3.6,0.8-5.2s1.2-3,2.1-4.1c0.9-1.2,2-2.1,3.3-2.7s2.7-1,4.3-1
		s3,0.3,4.3,1c1.3,0.6,2.4,1.5,3.3,2.7s1.6,2.5,2.1,4.1s0.8,3.3,0.8,5.2C20.8,36.4,20.6,38.1,20.1,39.7z M17.4,30.2
		c-0.4-1.3-0.9-2.4-1.6-3.3c-0.7-0.9-1.5-1.6-2.4-2.1s-2-0.7-3.1-0.7s-2.1,0.2-3,0.7S5.6,26,4.9,26.9s-1.2,2-1.6,3.3
		s-0.6,2.7-0.6,4.3c0,1.6,0.2,3,0.6,4.3s0.9,2.4,1.6,3.3c0.7,0.9,1.5,1.6,2.4,2.1s2,0.7,3.1,0.7s2.1-0.2,3-0.7s1.7-1.2,2.4-2.1
		c0.7-0.9,1.2-2,1.6-3.3s0.6-2.7,0.6-4.3S17.8,31.5,17.4,30.2z"/>
	<path class="st0" d="M43.2,32.8c-0.4,1-1,1.8-1.7,2.4c-0.7,0.7-1.6,1.2-2.7,1.5s-2.2,0.5-3.5,0.5h-6.1v9.9h-2.8V21.9h9.4
		c1.2,0,2.2,0.2,3.2,0.5s1.8,0.8,2.5,1.4s1.3,1.4,1.7,2.4c0.4,0.9,0.6,2.1,0.6,3.3C43.8,30.7,43.6,31.8,43.2,32.8z M39.7,25.8
		c-0.9-0.9-2.2-1.3-4-1.3h-6.5v10.2h6.2c3.8,0,5.7-1.7,5.7-5.1C41,27.9,40.6,26.6,39.7,25.8z"/>
	<path class="st0" d="M48.6,47.1V21.9h15.2v2.6H51.4v7.9h7.2V35h-7.2v9.6h13v2.6L48.6,47.1L48.6,47.1z"/>
	<path class="st0" d="M85.3,47.1l-11-17.2c-0.1-0.2-0.3-0.5-0.5-0.8s-0.3-0.6-0.5-0.9s-0.3-0.6-0.5-0.8c-0.2-0.3-0.3-0.5-0.3-0.6
		v1.7v18.7h-2.7V21.9h2.7l10.9,17.6c0.1,0.2,0.3,0.5,0.5,0.8s0.3,0.6,0.5,0.9s0.3,0.6,0.5,0.8c0.2,0.3,0.3,0.5,0.3,0.6v-1.7v-19h2.7
		v25.2H85.3z"/>
	<path class="st0" d="M109.4,43.2c-0.4,0.9-0.9,1.6-1.6,2.2c-0.7,0.6-1.6,1.1-2.6,1.5s-2.2,0.5-3.5,0.5c-1.7,0-3.3-0.3-4.8-1
		s-2.7-1.5-3.7-2.5l1.9-2.1c1,0.9,2,1.6,3.1,2.2s2.3,0.8,3.6,0.8c1.7,0,3-0.4,4-1.2s1.5-1.8,1.5-3.2c0-0.6-0.1-1.1-0.3-1.6
		s-0.5-0.9-1-1.3s-1.1-0.8-1.9-1.2s-1.7-0.8-2.9-1.2c-1.4-0.5-2.5-1-3.4-1.5s-1.7-1-2.2-1.6c-0.6-0.6-1-1.2-1.2-1.9
		c-0.3-0.7-0.4-1.5-0.4-2.4c0-1,0.2-1.9,0.6-2.7c0.4-0.8,0.9-1.5,1.6-2c0.7-0.6,1.5-1,2.5-1.3s2-0.4,3.2-0.4c1.7,0,3.1,0.2,4.3,0.7
		s2.3,1.1,3.4,2l-1.8,2.2c-0.9-0.8-1.8-1.3-2.8-1.7c-0.9-0.4-2-0.6-3.3-0.6c-0.9,0-1.6,0.1-2.2,0.3c-0.6,0.2-1.1,0.5-1.5,0.8
		s-0.7,0.7-0.9,1.2c-0.2,0.4-0.3,0.9-0.3,1.4s0.1,1,0.2,1.4s0.4,0.8,0.9,1.2s1,0.8,1.8,1.2c0.8,0.4,1.8,0.8,3.1,1.3
		c1.4,0.5,2.6,1,3.5,1.5s1.7,1.1,2.2,1.7c0.6,0.6,1,1.3,1.2,2s0.4,1.5,0.4,2.5C110,41.5,109.8,42.4,109.4,43.2z"/>
	<path class="st0" d="M123.8,24.5v22.6H121V24.5h-7.4v-2.6h17.6v2.6H123.8z"/>
	<path class="st0" d="M149.8,47.1l-2.2-6.4h-10.4l-2.2,6.4h-2.9l8.7-25.2h3.1l8.7,25.2H149.8z M144,29.9c-0.1-0.4-0.3-0.9-0.5-1.3
		c-0.2-0.5-0.3-0.9-0.5-1.4c-0.1-0.4-0.3-0.9-0.4-1.3c-0.1-0.4-0.2-0.7-0.3-1c-0.1,0.3-0.2,0.6-0.3,1s-0.2,0.8-0.4,1.3
		c-0.1,0.5-0.3,0.9-0.5,1.4s-0.3,1-0.5,1.4l-2.8,8.2h8.7L144,29.9z"/>
	<path class="st0" d="M171.2,46.3c-1.4,0.8-3,1.2-4.8,1.2c-1.5,0-2.9-0.3-4.2-1s-2.3-1.6-3.2-2.7s-1.6-2.5-2.1-4.1s-0.7-3.3-0.7-5.1
		c0-1.9,0.3-3.6,0.8-5.2s1.2-3,2.1-4.1c0.9-1.2,2-2.1,3.3-2.7c1.3-0.7,2.7-1,4.2-1c3.4,0,6.1,1.3,8,4l-2.2,1.7
		c-0.8-1.1-1.7-1.9-2.5-2.4c-0.9-0.5-2-0.8-3.3-0.8c-1.1,0-2.1,0.3-3,0.8s-1.7,1.2-2.3,2.1s-1.2,2-1.5,3.3c-0.4,1.3-0.6,2.7-0.6,4.2
		s0.2,2.9,0.6,4.2c0.4,1.3,0.9,2.4,1.6,3.3c0.7,0.9,1.5,1.6,2.4,2.2c0.9,0.5,1.9,0.8,3,0.8c1.4,0,2.5-0.3,3.5-0.9s1.9-1.4,2.7-2.4
		l1.9,1.7C173.7,44.6,172.5,45.6,171.2,46.3z"/>
	<path class="st0" d="M194.9,47.1l-7.5-13.4l-4.8,6.2v7.2h-2.8V21.9h2.8v11v3.4c0.2-0.2,0.4-0.6,0.7-1s0.6-0.9,1-1.3
		c0.4-0.5,0.7-0.9,1.1-1.4c0.3-0.5,0.7-0.9,0.9-1.2l7.3-9.4h3.1l-7.4,9.5l8.8,15.7L194.9,47.1L194.9,47.1z"/>
	<path class="st0" d="M18.6,62.8c-0.4,1-1,1.8-1.7,2.4c-0.7,0.7-1.6,1.2-2.7,1.5s-2.2,0.5-3.5,0.5H4.6v9.9H1.8V51.9h9.4
		c1.2,0,2.2,0.2,3.2,0.5s1.8,0.8,2.5,1.4s1.3,1.4,1.7,2.4c0.4,0.9,0.6,2.1,0.6,3.3C19.2,60.7,19,61.8,18.6,62.8z M15,55.8
		c-0.9-0.9-2.2-1.3-4-1.3H4.5v10.2h6.2c3.8,0,5.7-1.7,5.7-5.1C16.4,57.9,15.9,56.6,15,55.8z"/>
	<path class="st0" d="M24,77.1V51.9h2.8v22.6h12.5v2.6H24z"/>
	<path class="st0" d="M60.9,77.1l-2.2-6.4H48.3l-2.2,6.4h-2.9L52,51.9h3.1l8.7,25.2C63.8,77.1,60.9,77.1,60.9,77.1z M55.1,59.9
		c-0.1-0.4-0.3-0.9-0.5-1.3c-0.2-0.5-0.3-0.9-0.4-1.4c-0.1-0.4-0.3-0.9-0.4-1.3s-0.2-0.7-0.3-1c-0.1,0.3-0.2,0.6-0.3,1
		s-0.2,0.8-0.4,1.3c-0.1,0.5-0.3,0.9-0.5,1.4s-0.3,1-0.5,1.4L49,68.2h8.7L55.1,59.9z"/>
	<path class="st0" d="M75,54.5v22.6h-2.8V54.5h-7.4v-2.6h17.6v2.6H75z"/>
	<path class="st0" d="M90.3,54.5v8.4h6.9v2.6h-6.9v11.7h-2.8V51.9h14.8v2.6H90.3z"/>
	<path class="st0" d="M125.3,69.7c-0.5,1.6-1.2,3-2.1,4.1c-0.9,1.2-2,2.1-3.3,2.7s-2.7,1-4.3,1s-3-0.3-4.3-1
		c-1.3-0.6-2.4-1.5-3.3-2.7s-1.6-2.5-2.1-4.1s-0.7-3.3-0.7-5.2c0-1.9,0.3-3.6,0.8-5.2s1.2-3,2.1-4.1c0.9-1.2,2-2.1,3.3-2.7
		s2.7-1,4.3-1s3,0.3,4.3,1c1.3,0.6,2.4,1.5,3.3,2.7s1.6,2.5,2.1,4.1s0.8,3.3,0.8,5.2C126.1,66.4,125.8,68.1,125.3,69.7z M122.7,60.2
		c-0.4-1.3-0.9-2.4-1.6-3.3c-0.7-0.9-1.5-1.6-2.4-2.1s-2-0.7-3.1-0.7s-2.1,0.2-3,0.7s-1.7,1.2-2.4,2.1s-1.2,2-1.6,3.3
		s-0.6,2.7-0.6,4.3s0.2,3,0.6,4.3s0.9,2.4,1.6,3.3s1.5,1.6,2.4,2.1s2,0.7,3.1,0.7s2.1-0.2,3-0.7s1.7-1.2,2.4-2.1s1.2-2,1.6-3.3
		s0.6-2.7,0.6-4.3S123.1,61.5,122.7,60.2z"/>
	<path class="st0" d="M147.8,63.8c-1.1,1.2-2.5,2-4.3,2.4l5.5,10.9h-3.2l-5.4-10.7h-6v10.7h-2.8V51.9h10c1.1,0,2.1,0.1,3.1,0.4
		s1.8,0.7,2.5,1.3s1.2,1.3,1.7,2.2s0.6,1.9,0.6,3.2C149.4,61,148.9,62.6,147.8,63.8z M145.3,55.6c-0.9-0.8-2.2-1.2-3.8-1.2h-7.1v9.4
		h6.7c1.9,0,3.3-0.4,4.2-1.2s1.4-2,1.4-3.5C146.6,57.6,146.2,56.4,145.3,55.6z"/>
	<path class="st0" d="M174.1,77.1V60v-2.7c-0.1,0.2-0.2,0.5-0.3,0.9c-0.1,0.3-0.2,0.7-0.4,1.1c-0.1,0.4-0.3,0.8-0.4,1.1
		c-0.1,0.4-0.3,0.7-0.4,1.1l-6.7,16.2l-6.6-16.2c-0.1-0.3-0.3-0.7-0.4-1.1c-0.1-0.4-0.3-0.8-0.4-1.2c-0.1-0.4-0.3-0.7-0.4-1.1
		c-0.1-0.3-0.2-0.6-0.3-0.9v2.7V77H155V51.9h3.1l6,15.1c0.1,0.4,0.3,0.8,0.5,1.3s0.4,0.9,0.5,1.4c0.2,0.5,0.3,0.9,0.5,1.3
		c0.1,0.4,0.3,0.7,0.3,1c0.1-0.3,0.2-0.6,0.3-1s0.3-0.8,0.5-1.3s0.3-0.9,0.5-1.4s0.3-0.9,0.5-1.2l6-15.1h3.1v25.2h-2.7L174.1,77.1
		L174.1,77.1z"/>
	<path class="st0" d="M202.2,24.5c-0.1,0.3-0.3,0.5-0.5,0.7s-0.4,0.3-0.7,0.5c-0.3,0.1-0.5,0.2-0.9,0.2c-0.3,0-0.6-0.1-0.9-0.2
		c-0.3-0.1-0.5-0.3-0.7-0.5s-0.3-0.4-0.5-0.7c-0.1-0.3-0.2-0.5-0.2-0.9s0.1-0.6,0.2-0.9s0.3-0.5,0.5-0.7s0.4-0.3,0.7-0.5
		c0.3-0.1,0.5-0.2,0.9-0.2c0.3,0,0.6,0.1,0.9,0.2c0.3,0.1,0.5,0.3,0.7,0.5s0.3,0.4,0.5,0.7c0.1,0.3,0.2,0.5,0.2,0.9
		S202.3,24.3,202.2,24.5z M201.9,23c-0.1-0.2-0.2-0.4-0.4-0.6s-0.4-0.3-0.6-0.4c-0.2-0.1-0.5-0.1-0.7-0.1c-0.3,0-0.5,0-0.7,0.1
		s-0.4,0.2-0.6,0.4s-0.3,0.4-0.4,0.6c-0.1,0.2-0.1,0.5-0.1,0.7c0,0.3,0,0.5,0.1,0.7s0.2,0.4,0.4,0.6s0.4,0.3,0.6,0.4
		c0.2,0.1,0.5,0.1,0.7,0.1c0.3,0,0.5,0,0.7-0.1s0.4-0.2,0.6-0.4c0.2-0.2,0.3-0.4,0.4-0.6c0.1-0.2,0.1-0.5,0.1-0.7
		C202,23.4,201.9,23.2,201.9,23z M201,23.6c-0.1,0.1-0.2,0.2-0.4,0.2l0.5,1h-0.5l-0.5-0.9h-0.5v0.9h-0.4v-2.4h1c0.1,0,0.2,0,0.3,0
		s0.2,0.1,0.2,0.1s0.1,0.1,0.2,0.2c0,0.1,0.1,0.2,0.1,0.3C201.2,23.3,201.1,23.5,201,23.6z M200.6,22.9c-0.1-0.1-0.2-0.1-0.3-0.1
		h-0.6v0.7h0.6c0.1,0,0.2,0,0.3-0.1s0.1-0.1,0.1-0.3C200.8,23.1,200.7,23,200.6,22.9z"/>
</g>
</svg>
