<?xml version="1.0" encoding="utf-8"?>
<!-- Generator: Adobe Illustrator 19.2.1, SVG Export Plug-In . SVG Version: 6.00 Build 0)  -->
<svg version="1.1" id="Layer_1" xmlns="http://www.w3.org/2000/svg" xmlns:xlink="http://www.w3.org/1999/xlink" x="0px" y="0px"
	 viewBox="0 0 322.2 46.9" style="enable-background:new 0 0 322.2 46.9;" xml:space="preserve">
<style type="text/css">
	.st0{fill:#FFFFFF;}
</style>
<g>
	<path class="st0" d="M9.2,16.9l-2.7-5.7H4.6v5.7H0V0.1h7.5c1,0,1.9,0.1,2.7,0.3s1.5,0.5,2.1,0.9c0.6,0.4,1,1,1.3,1.7
		s0.5,1.5,0.5,2.5c0,1.3-0.3,2.3-0.8,3.1S12,10,11.1,10.4l3.4,6.4L9.2,16.9L9.2,16.9z M9,4.4C8.6,4.1,8.1,3.9,7.4,3.9H4.6v3.7h2.8
		c0.8,0,1.3-0.2,1.6-0.5s0.5-0.8,0.5-1.4C9.4,5.2,9.3,4.7,9,4.4z"/>
	<path class="st0" d="M17.9,16.9V0.1h12.9V4h-8.3v2.3h5v3.8h-5V13h8.4v3.9H17.9z"/>
	<path class="st0" d="M48.6,12.4c-0.4,1.1-1,2-1.7,2.6s-1.7,1.1-2.8,1.4s-2.4,0.4-3.9,0.4h-5.4V0.1h5.9c1.3,0,2.5,0.1,3.6,0.4
		s2,0.7,2.7,1.4c0.7,0.6,1.3,1.5,1.7,2.6s0.6,2.4,0.6,4S49,11.3,48.6,12.4z M44.2,6.5c-0.1-0.6-0.4-1-0.7-1.4s-0.7-0.6-1.2-0.8
		S41.2,4,40.5,4h-1.2v8.8h1c0.7,0,1.3-0.1,1.8-0.2s0.9-0.4,1.3-0.7c0.3-0.3,0.6-0.8,0.7-1.4c0.1-0.6,0.2-1.3,0.2-2.1
		C44.4,7.7,44.3,7.1,44.2,6.5z"/>
	<path class="st0" d="M71.3,16.9v-6.6h-5.2v6.6h-4.8V0.1h4.8v6.1h5.2V0.1h4.8v16.8H71.3z"/>
	<path class="st0" d="M91,16.9l-0.9-3h-5l-0.9,3h-5l6.1-16.8H90l6.1,16.8H91z M88.7,9.2c-0.1-0.5-0.3-1-0.4-1.4S88.1,7,88,6.7
		s-0.2-0.6-0.2-0.9c-0.1-0.3-0.1-0.5-0.2-0.8c0,0.3-0.1,0.6-0.2,0.8s-0.1,0.6-0.2,0.9S87,7.4,86.9,7.8c-0.1,0.4-0.2,0.9-0.4,1.4
		l-0.3,1.1H89L88.7,9.2z"/>
	<path class="st0" d="M105.6,4.2v12.7h-4.7V4.2h-4.7V0.1h14.1v4.1H105.6z"/>
	<path class="st0" d="M116.5,3c-0.1,0.3-0.3,0.5-0.5,0.7s-0.4,0.3-0.7,0.5c-0.3,0.1-0.6,0.2-0.9,0.2s-0.6-0.1-0.9-0.2
		s-0.5-0.3-0.7-0.5s-0.3-0.4-0.5-0.7s-0.2-0.5-0.2-0.9s0.1-0.6,0.2-0.9s0.3-0.5,0.5-0.7s0.4-0.3,0.7-0.5c0.3-0.1,0.6-0.2,0.9-0.2
		s0.6,0.1,0.9,0.2s0.5,0.3,0.7,0.5s0.3,0.4,0.5,0.7c0.1,0.3,0.2,0.5,0.2,0.9S116.6,2.8,116.5,3z M116.2,1.4
		c-0.1-0.2-0.2-0.4-0.4-0.6s-0.4-0.3-0.6-0.4s-0.5-0.1-0.7-0.1c-0.3,0-0.5,0-0.7,0.1s-0.4,0.2-0.6,0.4s-0.3,0.4-0.4,0.6
		s-0.1,0.5-0.1,0.7c0,0.3,0,0.5,0.1,0.7s0.2,0.4,0.4,0.6s0.4,0.3,0.6,0.4s0.5,0.1,0.7,0.1c0.3,0,0.5,0,0.7-0.1s0.4-0.2,0.6-0.4
		s0.3-0.4,0.4-0.6c0.1-0.2,0.1-0.5,0.1-0.7C116.3,1.9,116.3,1.7,116.2,1.4z M115.4,2.1c-0.1,0.1-0.2,0.2-0.4,0.2l0.5,1H115l-0.5-0.9
		H114v0.9h-0.4V0.9h1c0.1,0,0.2,0,0.3,0c0.1,0,0.2,0.1,0.2,0.1s0.1,0.1,0.2,0.2c0,0.1,0.1,0.2,0.1,0.3C115.5,1.8,115.5,2,115.4,2.1z
		 M115,1.4c-0.1-0.1-0.2-0.1-0.3-0.1h-0.6V2h0.6c0.1,0,0.2,0,0.3-0.1c0.1-0.1,0.1-0.1,0.1-0.3C115.1,1.6,115.1,1.5,115,1.4z"/>
	<path class="st0" d="M0,46.9V21.7h15.2v2.6H2.8v7.9H10v2.6H2.8v9.6h13V47L0,46.9L0,46.9z"/>
	<path class="st0" d="M36.6,46.9l-11-17.2c-0.1-0.2-0.3-0.5-0.5-0.8s-0.3-0.6-0.5-0.9s-0.3-0.6-0.5-0.8c-0.2-0.3-0.3-0.5-0.3-0.6
		v1.7V47h-2.7V21.7h2.7l10.9,17.6c0.1,0.2,0.3,0.5,0.5,0.8s0.3,0.6,0.5,0.9c0.2,0.3,0.3,0.6,0.5,0.8s0.3,0.5,0.3,0.6v-1.7v-19h2.7
		v25.2H36.6z"/>
	<path class="st0" d="M54.6,24.3v22.6h-2.8V24.3h-7.4v-2.6H62v2.6H54.6z"/>
	<path class="st0" d="M67.1,46.9V21.7h15.2v2.6H69.9v7.9h7.2v2.6h-7.2v9.6h13V47L67.1,46.9L67.1,46.9z"/>
	<path class="st0" d="M104.4,33.6c-1.1,1.2-2.5,2-4.3,2.4l5.5,10.9h-3.2L97,36.2h-6v10.7h-2.8V21.7h10c1.1,0,2.1,0.1,3.1,0.4
		s1.8,0.7,2.5,1.3c0.7,0.6,1.2,1.3,1.7,2.2s0.6,1.9,0.6,3.2C106,30.8,105.5,32.4,104.4,33.6z M101.9,25.4c-0.9-0.8-2.2-1.2-3.8-1.2
		H91v9.4h6.7c1.9,0,3.3-0.4,4.2-1.2c0.9-0.8,1.4-2,1.4-3.5C103.2,27.4,102.8,26.2,101.9,25.4z"/>
	<path class="st0" d="M128.4,32.6c-0.4,1-1,1.8-1.7,2.4c-0.7,0.7-1.6,1.2-2.7,1.5s-2.2,0.5-3.5,0.5h-6.1v9.9h-2.8V21.7h9.4
		c1.2,0,2.2,0.2,3.2,0.5s1.8,0.8,2.5,1.4s1.3,1.4,1.7,2.4c0.4,0.9,0.6,2.1,0.6,3.3C129.1,30.5,128.8,31.6,128.4,32.6z M124.9,25.6
		c-0.9-0.9-2.2-1.3-4-1.3h-6.5v10.2h6.2c3.8,0,5.7-1.7,5.7-5.1C126.2,27.7,125.8,26.5,124.9,25.6z"/>
	<path class="st0" d="M150,33.6c-1.1,1.2-2.5,2-4.3,2.4l5.5,10.9H148l-5.4-10.7h-6v10.7h-2.8V21.7h10c1.1,0,2.1,0.1,3.1,0.4
		s1.8,0.7,2.5,1.3c0.7,0.6,1.2,1.3,1.7,2.2s0.6,1.9,0.6,3.2C151.7,30.8,151.1,32.4,150,33.6z M147.5,25.4c-0.9-0.8-2.2-1.2-3.8-1.2
		h-7.1v9.4h6.7c1.9,0,3.3-0.4,4.2-1.2s1.4-2,1.4-3.5C148.9,27.4,148.4,26.2,147.5,25.4z"/>
	<path class="st0" d="M157.4,46.9V21.7h2.8v25.2H157.4z"/>
	<path class="st0" d="M182,43.1c-0.4,0.9-0.9,1.6-1.6,2.2c-0.7,0.6-1.6,1.1-2.6,1.5s-2.2,0.5-3.5,0.5c-1.7,0-3.3-0.3-4.8-1
		s-2.7-1.5-3.7-2.5l1.9-2.1c1,0.9,2,1.6,3.1,2.2c1.1,0.6,2.3,0.8,3.6,0.8c1.7,0,3-0.4,4-1.2s1.5-1.8,1.5-3.2c0-0.6-0.1-1.1-0.3-1.6
		s-0.5-0.9-1-1.3s-1.1-0.8-1.9-1.2s-1.7-0.8-2.9-1.2c-1.4-0.5-2.5-1-3.4-1.5s-1.7-1-2.2-1.6c-0.6-0.6-1-1.2-1.2-1.9
		c-0.3-0.7-0.4-1.5-0.4-2.4c0-1,0.2-1.9,0.6-2.7c0.4-0.8,0.9-1.5,1.6-2c0.7-0.6,1.5-1,2.5-1.3s2-0.4,3.2-0.4c1.7,0,3.1,0.2,4.3,0.7
		s2.3,1.1,3.4,2l-1.8,2.2c-0.9-0.8-1.8-1.3-2.8-1.7c-0.9-0.4-2-0.6-3.3-0.6c-0.9,0-1.6,0.1-2.2,0.3c-0.6,0.2-1.1,0.5-1.5,0.8
		s-0.7,0.7-0.9,1.2c-0.2,0.4-0.3,0.9-0.3,1.4s0.1,1,0.2,1.4c0.1,0.4,0.4,0.8,0.9,1.2s1,0.8,1.8,1.2c0.8,0.4,1.8,0.8,3.1,1.3
		c1.4,0.5,2.6,1,3.5,1.5s1.7,1.1,2.2,1.7c0.6,0.6,1,1.3,1.2,2s0.4,1.5,0.4,2.5C182.5,41.3,182.3,42.2,182,43.1z"/>
	<path class="st0" d="M188.3,46.9V21.7h15.2v2.6h-12.4v7.9h7.2v2.6h-7.2v9.6h13V47L188.3,46.9L188.3,46.9z"/>
	<path class="st0" d="M218.8,46.9V21.7h2.8v22.6h12.5v2.6H218.8z"/>
	<path class="st0" d="M239.7,46.9V21.7h2.8v25.2H239.7z"/>
	<path class="st0" d="M264.8,46.9l-11-17.2c-0.1-0.2-0.3-0.5-0.5-0.8s-0.3-0.6-0.5-0.9s-0.3-0.6-0.5-0.8s-0.3-0.5-0.3-0.6v1.7V47
		h-2.7V21.7h2.7l11,17.6c0.1,0.2,0.3,0.5,0.5,0.8s0.3,0.6,0.5,0.9s0.3,0.6,0.5,0.8c0.2,0.3,0.3,0.5,0.3,0.6v-1.7v-19h2.7v25.2
		C267.5,46.9,264.8,46.9,264.8,46.9z"/>
	<path class="st0" d="M289.8,44.6c-1.5,1.8-3.8,2.7-6.8,2.7s-5.3-0.9-6.8-2.7s-2.3-4.4-2.3-7.9v-15h2.8v14.9c0,5.4,2.1,8.1,6.4,8.1
		c2.2,0,3.7-0.7,4.7-2c0.9-1.3,1.4-3.3,1.4-6.1v-15h2.8v14.9C292.1,40.1,291.3,42.8,289.8,44.6z"/>
	<path class="st0" d="M312.3,46.9l-3.9-6.6c-0.5-0.8-0.9-1.6-1.3-2.2c-0.4-0.7-0.7-1.3-1-1.9c-0.3,0.6-0.7,1.3-1,2
		c-0.4,0.7-0.8,1.4-1.3,2.2l-3.9,6.6h-3.1l7.8-13.1l-7.2-12.1h3.2l3.2,5.5c0.5,0.8,0.9,1.5,1.3,2.2s0.7,1.3,1,2
		c0.3-0.6,0.7-1.3,1-1.9c0.4-0.7,0.8-1.4,1.3-2.2l3.2-5.5h3.1l-7.2,12l7.8,13.2C315.5,46.9,312.3,46.9,312.3,46.9z"/>
	<path class="st0" d="M322,24.7c-0.1,0.3-0.3,0.5-0.5,0.7s-0.4,0.3-0.7,0.5c-0.3,0.1-0.5,0.2-0.9,0.2s-0.6-0.1-0.9-0.2
		s-0.5-0.3-0.7-0.5s-0.3-0.4-0.5-0.7s-0.2-0.5-0.2-0.9s0.1-0.6,0.2-0.9s0.3-0.5,0.5-0.7s0.4-0.3,0.7-0.5c0.3-0.1,0.5-0.2,0.9-0.2
		c0.3,0,0.6,0.1,0.9,0.2s0.5,0.3,0.7,0.5s0.3,0.4,0.5,0.7c0.1,0.3,0.2,0.5,0.2,0.9S322.1,24.4,322,24.7z M321.7,23.1
		c-0.1-0.2-0.2-0.4-0.4-0.6s-0.4-0.3-0.6-0.4S320.2,22,320,22c-0.3,0-0.5,0-0.7,0.1s-0.4,0.2-0.6,0.4s-0.3,0.4-0.4,0.6
		s-0.1,0.5-0.1,0.7c0,0.3,0,0.5,0.1,0.7s0.2,0.4,0.4,0.6s0.4,0.3,0.6,0.4s0.5,0.1,0.7,0.1c0.3,0,0.5,0,0.7-0.1s0.4-0.2,0.6-0.4
		c0.2-0.2,0.3-0.4,0.4-0.6s0.1-0.5,0.1-0.7C321.8,23.6,321.8,23.3,321.7,23.1z M320.9,23.8c-0.1,0.1-0.2,0.2-0.4,0.2l0.5,1h-0.5
		l-0.5-0.9h-0.5V25h-0.4v-2.4h1c0.1,0,0.2,0,0.3,0s0.2,0.1,0.2,0.1s0.1,0.1,0.2,0.2c0,0.1,0.1,0.2,0.1,0.3
		C321,23.5,321,23.6,320.9,23.8z M320.5,23.1c-0.1-0.1-0.2-0.1-0.3-0.1h-0.6v0.7h0.6c0.1,0,0.2,0,0.3-0.1c0.1-0.1,0.1-0.1,0.1-0.3
		C320.6,23.2,320.6,23.1,320.5,23.1z"/>
</g>
</svg>
