<?xml version="1.0" encoding="utf-8"?>
<!-- Generator: Adobe Illustrator 19.2.1, SVG Export Plug-In . SVG Version: 6.00 Build 0)  -->
<svg version="1.1" id="Layer_1" xmlns="http://www.w3.org/2000/svg" xmlns:xlink="http://www.w3.org/1999/xlink" x="0px" y="0px"
	 viewBox="0 0 276.2 77.3" style="enable-background:new 0 0 276.2 77.3;" xml:space="preserve">
<style type="text/css">
	.st0{fill:#FFFFFF;}
</style>
<g>
	<path class="st0" d="M10.6,16.9l-2.7-5.7H6v5.7H1.4V0.1h7.5c1,0,1.9,0.1,2.7,0.3s1.5,0.5,2.1,0.9c0.6,0.4,1,1,1.3,1.7
		s0.5,1.5,0.5,2.5c0,1.3-0.3,2.3-0.8,3.1s-1.3,1.4-2.2,1.8l3.4,6.4L10.6,16.9L10.6,16.9z M10.4,4.4c-0.3-0.3-0.8-0.5-1.6-0.5H6v3.7
		h2.8c0.8,0,1.3-0.2,1.6-0.5s0.5-0.8,0.5-1.4C10.8,5.2,10.7,4.7,10.4,4.4z"/>
	<path class="st0" d="M19.3,16.9V0.1h12.9V4h-8.3v2.3h5v3.8h-5V13h8.4v3.9H19.3z"/>
	<path class="st0" d="M50,12.4c-0.4,1.1-1,2-1.7,2.6s-1.7,1.1-2.8,1.4s-2.4,0.4-3.9,0.4H36V0.1h5.9c1.3,0,2.5,0.1,3.6,0.4
		s2,0.7,2.7,1.4c0.7,0.6,1.3,1.5,1.7,2.6s0.6,2.4,0.6,4S50.4,11.3,50,12.4z M45.6,6.5c-0.1-0.6-0.4-1-0.7-1.4s-0.7-0.6-1.2-0.8
		S42.6,4,41.9,4h-1.2v8.8h1c0.7,0,1.3-0.1,1.8-0.2s0.9-0.4,1.3-0.7c0.3-0.3,0.6-0.8,0.7-1.4c0.1-0.6,0.2-1.3,0.2-2.1
		C45.8,7.7,45.7,7.1,45.6,6.5z"/>
	<path class="st0" d="M72.7,16.9v-6.6h-5.2v6.6h-4.8V0.1h4.8v6.1h5.2V0.1h4.8v16.8H72.7z"/>
	<path class="st0" d="M92.4,16.9l-0.9-3h-5l-0.9,3h-5l6.1-16.8h4.7l6.1,16.8H92.4z M90.1,9.2c-0.1-0.5-0.3-1-0.4-1.4
		S89.5,7,89.4,6.7s-0.2-0.6-0.2-0.9C89.1,5.5,89,5.3,89,5c0,0.3-0.1,0.6-0.2,0.8c-0.1,0.3-0.1,0.6-0.2,0.9s-0.2,0.7-0.3,1.1
		c-0.1,0.4-0.2,0.9-0.4,1.4l-0.3,1.1h2.8L90.1,9.2z"/>
	<path class="st0" d="M107,4.2v12.7h-4.7V4.2h-4.7V0.1h14.1v4.1H107z"/>
	<path class="st0" d="M117.9,3c-0.1,0.3-0.3,0.5-0.5,0.7S117,4,116.7,4.2c-0.3,0.1-0.6,0.2-0.9,0.2s-0.6-0.1-0.9-0.2
		s-0.5-0.3-0.7-0.5s-0.3-0.4-0.5-0.7s-0.2-0.5-0.2-0.9s0.1-0.6,0.2-0.9s0.3-0.5,0.5-0.7s0.4-0.3,0.7-0.5c0.3-0.1,0.6-0.2,0.9-0.2
		s0.6,0.1,0.9,0.2s0.5,0.3,0.7,0.5s0.3,0.4,0.5,0.7c0.1,0.3,0.2,0.5,0.2,0.9S118,2.8,117.9,3z M117.6,1.4c-0.1-0.2-0.2-0.4-0.4-0.6
		s-0.4-0.3-0.6-0.4s-0.5-0.1-0.7-0.1c-0.3,0-0.5,0-0.7,0.1s-0.4,0.2-0.6,0.4s-0.3,0.4-0.4,0.6s-0.1,0.5-0.1,0.7c0,0.3,0,0.5,0.1,0.7
		s0.2,0.4,0.4,0.6s0.4,0.3,0.6,0.4s0.5,0.1,0.7,0.1c0.3,0,0.5,0,0.7-0.1s0.4-0.2,0.6-0.4s0.3-0.4,0.4-0.6c0.1-0.2,0.1-0.5,0.1-0.7
		S117.7,1.7,117.6,1.4z M116.8,2.1c-0.1,0.1-0.2,0.2-0.4,0.2l0.5,1h-0.5L116,2.4h-0.5v0.9h-0.4V0.9h1c0.1,0,0.2,0,0.3,0
		c0.1,0,0.2,0.1,0.2,0.1s0.1,0.1,0.2,0.2c0,0.1,0.1,0.2,0.1,0.3C116.9,1.8,116.9,2,116.8,2.1z M116.4,1.4c-0.1-0.1-0.2-0.1-0.3-0.1
		h-0.6V2h0.6c0.1,0,0.2,0,0.3-0.1c0.1-0.1,0.1-0.1,0.1-0.3C116.5,1.6,116.5,1.5,116.4,1.4z"/>
	<path class="st0" d="M1.4,46.9V21.7h15.2v2.6H4.2v7.9h7.2v2.6H4.2v9.6h13V47L1.4,46.9L1.4,46.9z"/>
	<path class="st0" d="M38.1,46.9l-11-17.2c-0.1-0.2-0.3-0.5-0.5-0.8s-0.3-0.6-0.5-0.9s-0.3-0.6-0.5-0.8c-0.2-0.3-0.3-0.5-0.3-0.6
		v1.7V47h-2.7V21.7h2.7l10.9,17.6c0.1,0.2,0.3,0.5,0.5,0.8s0.3,0.6,0.5,0.9c0.2,0.3,0.3,0.6,0.5,0.8s0.3,0.5,0.3,0.6v-1.7v-19h2.7
		v25.2H38.1z"/>
	<path class="st0" d="M56,24.3v22.6h-2.8V24.3h-7.4v-2.6h17.6v2.6H56z"/>
	<path class="st0" d="M68.5,46.9V21.7h15.2v2.6H71.3v7.9h7.2v2.6h-7.2v9.6h13V47L68.5,46.9L68.5,46.9z"/>
	<path class="st0" d="M105.8,33.6c-1.1,1.2-2.5,2-4.3,2.4l5.5,10.9h-3.2l-5.4-10.7h-6v10.7h-2.8V21.7h10c1.1,0,2.1,0.1,3.1,0.4
		s1.8,0.7,2.5,1.3c0.7,0.6,1.2,1.3,1.7,2.2s0.6,1.9,0.6,3.2C107.4,30.8,106.9,32.4,105.8,33.6z M103.3,25.4
		c-0.9-0.8-2.2-1.2-3.8-1.2h-7.1v9.4h6.7c1.9,0,3.3-0.4,4.2-1.2c0.9-0.8,1.4-2,1.4-3.5C104.6,27.4,104.2,26.2,103.3,25.4z"/>
	<path class="st0" d="M129.8,32.6c-0.4,1-1,1.8-1.7,2.4c-0.7,0.7-1.6,1.2-2.7,1.5s-2.2,0.5-3.5,0.5h-6.1v9.9H113V21.7h9.4
		c1.2,0,2.2,0.2,3.2,0.5s1.8,0.8,2.5,1.4c0.7,0.6,1.3,1.4,1.7,2.4c0.4,0.9,0.6,2.1,0.6,3.3C130.5,30.5,130.3,31.6,129.8,32.6z
		 M126.3,25.6c-0.9-0.9-2.2-1.3-4-1.3h-6.5v10.2h6.2c3.8,0,5.7-1.7,5.7-5.1C127.7,27.7,127.2,26.5,126.3,25.6z"/>
	<path class="st0" d="M151.5,33.6c-1.1,1.2-2.5,2-4.3,2.4l5.5,10.9h-3.2L144,36.2h-6v10.7h-2.8V21.7h10c1.1,0,2.1,0.1,3.1,0.4
		s1.8,0.7,2.5,1.3c0.7,0.6,1.2,1.3,1.7,2.2s0.6,1.9,0.6,3.2C153.1,30.8,152.5,32.4,151.5,33.6z M148.9,25.4
		c-0.9-0.8-2.2-1.2-3.8-1.2H138v9.4h6.7c1.9,0,3.3-0.4,4.2-1.2s1.4-2,1.4-3.5C150.3,27.4,149.8,26.2,148.9,25.4z"/>
	<path class="st0" d="M158.8,46.9V21.7h2.8v25.2H158.8z"/>
	<path class="st0" d="M183.4,43.1c-0.4,0.9-0.9,1.6-1.6,2.2c-0.7,0.6-1.6,1.1-2.6,1.5s-2.2,0.5-3.5,0.5c-1.7,0-3.3-0.3-4.8-1
		s-2.7-1.5-3.7-2.5l1.9-2.1c1,0.9,2,1.6,3.1,2.2c1.1,0.6,2.3,0.8,3.6,0.8c1.7,0,3-0.4,4-1.2s1.5-1.8,1.5-3.2c0-0.6-0.1-1.1-0.3-1.6
		s-0.5-0.9-1-1.3s-1.1-0.8-1.9-1.2s-1.7-0.8-2.9-1.2c-1.4-0.5-2.5-1-3.4-1.5s-1.7-1-2.2-1.6c-0.6-0.6-1-1.2-1.2-1.9
		c-0.3-0.7-0.4-1.5-0.4-2.4c0-1,0.2-1.9,0.6-2.7c0.4-0.8,0.9-1.5,1.6-2c0.7-0.6,1.5-1,2.5-1.3s2-0.4,3.2-0.4c1.7,0,3.1,0.2,4.3,0.7
		s2.3,1.1,3.4,2l-1.8,2.2c-0.9-0.8-1.8-1.3-2.8-1.7c-0.9-0.4-2-0.6-3.3-0.6c-0.9,0-1.6,0.1-2.2,0.3c-0.6,0.2-1.1,0.5-1.5,0.8
		s-0.7,0.7-0.9,1.2c-0.2,0.4-0.3,0.9-0.3,1.4s0.1,1,0.2,1.4c0.1,0.4,0.4,0.8,0.9,1.2s1,0.8,1.8,1.2c0.8,0.4,1.8,0.8,3.1,1.3
		c1.4,0.5,2.6,1,3.5,1.5s1.7,1.1,2.2,1.7c0.6,0.6,1,1.3,1.2,2s0.4,1.5,0.4,2.5C183.9,41.3,183.7,42.2,183.4,43.1z"/>
	<path class="st0" d="M189.8,46.9V21.7H205v2.6h-12.4v7.9h7.2v2.6h-7.2v9.6h13V47L189.8,46.9L189.8,46.9z"/>
	<path class="st0" d="M11.7,76.9H8.6L0,51.7h3L8.6,69c0.1,0.4,0.3,0.8,0.4,1.3c0.2,0.5,0.3,1,0.5,1.4c0.1,0.5,0.3,0.9,0.4,1.3
		s0.2,0.7,0.3,0.9c0.1-0.2,0.2-0.5,0.3-1c0.1-0.4,0.3-0.9,0.4-1.3c0.2-0.5,0.3-1,0.5-1.5s0.3-0.9,0.4-1.3l5.7-17.2h2.9L11.7,76.9z"
		/>
	<path class="st0" d="M25.6,76.9V51.7h2.8v25.2H25.6z"/>
	<path class="st0" d="M51.4,63.6c-1.1,1.2-2.5,2-4.3,2.4l5.5,10.9h-3.2L44,66.2h-6v10.7h-2.8V51.7h10c1.1,0,2.1,0.1,3.1,0.4
		s1.8,0.7,2.5,1.3s1.2,1.3,1.7,2.2s0.6,1.9,0.6,3.2C53.1,60.8,52.5,62.4,51.4,63.6z M48.9,55.4c-0.9-0.8-2.2-1.2-3.8-1.2H38v9.4h6.7
		c1.9,0,3.3-0.4,4.2-1.2s1.3-2,1.3-3.5C50.3,57.4,49.8,56.2,48.9,55.4z"/>
	<path class="st0" d="M66.6,54.3v22.6h-2.8V54.3h-7.4v-2.6H74v2.6H66.6z"/>
	<path class="st0" d="M94.9,74.6c-1.5,1.8-3.8,2.7-6.8,2.7s-5.3-0.9-6.8-2.7c-1.5-1.8-2.3-4.4-2.3-7.9v-15h2.8v14.9
		c0,5.4,2.1,8.1,6.4,8.1c2.2,0,3.7-0.7,4.7-2c0.9-1.3,1.4-3.3,1.4-6.1v-15h2.8v14.9C97.1,70.1,96.3,72.8,94.9,74.6z"/>
	<path class="st0" d="M119,76.9l-2.2-6.4h-10.4l-2.2,6.4h-2.9l8.7-25.2h3.1l8.7,25.2C122,76.9,119,76.9,119,76.9z M113.2,59.7
		c-0.1-0.4-0.3-0.9-0.4-1.3c-0.2-0.5-0.3-0.9-0.4-1.4c-0.1-0.4-0.3-0.9-0.4-1.3c-0.1-0.4-0.2-0.7-0.3-1c-0.1,0.3-0.2,0.6-0.3,1
		c-0.1,0.4-0.2,0.8-0.4,1.3c-0.1,0.5-0.3,0.9-0.5,1.4s-0.3,1-0.5,1.4l-2.8,8.2h8.7L113.2,59.7z"/>
	<path class="st0" d="M127.2,76.9V51.7h2.8v22.6h12.5v2.6H127.2L127.2,76.9z"/>
	<path class="st0" d="M148.1,76.9V51.7h2.8v25.2C150.9,76.9,148.1,76.9,148.1,76.9z"/>
	<path class="st0" d="M156.6,76.9v-2.4l11.9-16.2c0.5-0.7,1-1.4,1.5-2.1c0.5-0.7,1-1.4,1.5-2h-2.8h-11.4v-2.4h17.3v2.4l-11.9,16.2
		c-0.5,0.7-1,1.4-1.5,2.1s-1,1.4-1.5,2h2.8h12.1v2.4H156.6z"/>
	<path class="st0" d="M196.2,76.9l-2.2-6.4h-10.4l-2.2,6.4h-2.9l8.7-25.2h3.1l8.7,25.2C199.2,76.9,196.2,76.9,196.2,76.9z
		 M190.4,59.7c-0.1-0.4-0.3-0.9-0.4-1.3c-0.2-0.5-0.3-0.9-0.4-1.4c-0.1-0.4-0.3-0.9-0.4-1.3c-0.1-0.4-0.2-0.7-0.3-1
		c-0.1,0.3-0.2,0.6-0.3,1s-0.2,0.8-0.4,1.3c-0.1,0.5-0.3,0.9-0.5,1.4s-0.3,1-0.5,1.4l-2.8,8.2h8.7L190.4,59.7z"/>
	<path class="st0" d="M210.3,54.3v22.6h-2.8V54.3h-7.4v-2.6h17.6v2.6H210.3z"/>
	<path class="st0" d="M223,76.9V51.7h2.8v25.2H223z"/>
	<path class="st0" d="M251.7,69.5c-0.5,1.6-1.2,3-2.1,4.1c-0.9,1.2-2,2.1-3.3,2.7s-2.7,1-4.3,1s-3-0.3-4.3-1
		c-1.3-0.6-2.4-1.5-3.3-2.7c-0.9-1.2-1.6-2.5-2.1-4.1s-0.7-3.3-0.7-5.2c0-1.9,0.3-3.6,0.8-5.2c0.5-1.6,1.2-3,2.1-4.1
		c0.9-1.2,2-2.1,3.3-2.7c1.3-0.6,2.7-1,4.3-1s3,0.3,4.3,1c1.3,0.6,2.4,1.5,3.3,2.7c0.9,1.2,1.6,2.5,2.1,4.1s0.8,3.3,0.8,5.2
		C252.5,66.2,252.2,67.9,251.7,69.5z M249.1,60.1c-0.4-1.3-0.9-2.4-1.6-3.3c-0.7-0.9-1.5-1.6-2.4-2.1s-2-0.7-3.1-0.7s-2.1,0.2-3,0.7
		s-1.7,1.2-2.4,2.1c-0.7,0.9-1.2,2-1.6,3.3c-0.4,1.3-0.6,2.7-0.6,4.3c0,1.6,0.2,3,0.6,4.3c0.4,1.3,0.9,2.4,1.6,3.3
		c0.7,0.9,1.5,1.6,2.4,2.1s2,0.7,3.1,0.7s2.1-0.2,3-0.7s1.7-1.2,2.4-2.1s1.2-2,1.6-3.3s0.6-2.7,0.6-4.3S249.5,61.3,249.1,60.1z"/>
	<path class="st0" d="M273.5,76.9l-11-17.2c-0.1-0.2-0.3-0.5-0.5-0.8s-0.3-0.6-0.5-0.9c-0.2-0.3-0.3-0.6-0.5-0.8
		c-0.2-0.3-0.3-0.5-0.3-0.6v1.7V77H258V51.7h2.7l10.9,17.6c0.1,0.2,0.3,0.5,0.5,0.8s0.3,0.6,0.5,0.9s0.3,0.6,0.5,0.8
		c0.2,0.3,0.3,0.5,0.3,0.6v-1.7v-19h2.7v25.2C276.2,76.9,273.5,76.9,273.5,76.9z"/>
</g>
</svg>
